<svg width="32" height="32" viewBox="0 0 32 32" fill="none" xmlns="http://www.w3.org/2000/svg">
<path d="M7.78941 9.88455H1.62128C0.996594 9.88455 0.488281 10.3928 0.488281 11.0176V30.833C0.488281 31.4577 0.996531 31.966 1.62128 31.966H7.78941C8.41416 31.966 8.92241 31.4578 8.92241 30.833V11.0176C8.92241 10.3929 8.41416 9.88455 7.78941 9.88455ZM7.64759 30.6912H1.76322V11.1594H7.64759V30.6912Z" fill="#4C5D5B"/>
<path d="M8.03275 1.41257C7.14331 0.523503 5.96244 0.0337524 4.70762 0.0337524C2.11181 0.0337524 0 2.14363 0 4.73694C0 7.33126 2.11181 9.44188 4.70762 9.44188C7.30163 9.44188 9.412 7.33126 9.412 4.73701C9.41206 3.48244 8.92225 2.30182 8.03275 1.41257ZM4.70762 8.16695C2.81487 8.16695 1.27488 6.62819 1.27488 4.73694C1.27488 2.84657 2.81481 1.30869 4.70762 1.30869C5.622 1.30869 6.48281 1.66582 7.13137 2.31425C7.77994 2.96263 8.13706 3.82307 8.13706 4.73694C8.13713 6.62826 6.59869 8.16695 4.70762 8.16695Z" fill="#4C5D5B"/>
<path d="M30.5749 12.8307C29.2292 10.549 26.8416 9.39206 23.4785 9.39206C21.3118 9.39206 19.7374 10.1314 18.6899 10.8942C18.6282 10.3273 18.1466 9.8845 17.5635 9.8845H11.6564C11.0317 9.8845 10.5234 10.3927 10.5234 11.0175V30.833C10.5234 31.4577 11.0317 31.966 11.6564 31.966H17.8111C18.4358 31.966 18.9441 31.4577 18.9441 30.833V21.0291C18.9441 17.7056 19.8447 17.0757 21.507 17.0757C23.1321 17.0757 23.5771 17.962 23.5771 21.1991V30.8333C23.5771 31.458 24.0853 31.9663 24.71 31.9663H30.8669C31.4916 31.9663 31.9999 31.458 31.9999 30.8333V19.9641C31.9999 17.7679 31.8379 14.9726 30.5749 12.8307ZM30.725 30.6913H24.852V21.199C24.852 19.9077 24.8161 18.5627 24.3878 17.5572C23.8914 16.3917 22.9221 15.8007 21.5071 15.8007C18.1252 15.8007 17.6692 18.4437 17.6692 21.0291V30.6912H11.7984V11.1594H17.4216V12.3046C17.4216 12.5673 17.5829 12.8032 17.8278 12.8986C18.0727 12.994 18.351 12.9292 18.5287 12.7356C19.2379 11.9631 20.8239 10.667 23.4785 10.667C29.8472 10.667 30.7251 15.1354 30.7251 19.9641V30.6913H30.725Z" fill="#4C5D5B"/>
<path d="M3.05931 22.757C2.70725 22.757 2.42188 23.0424 2.42188 23.3945V29.3228C2.42188 29.6748 2.70725 29.9602 3.05931 29.9602C3.41138 29.9602 3.69675 29.6748 3.69675 29.3228V23.3945C3.69675 23.0424 3.41138 22.757 3.05931 22.757Z" fill="#4C5D5B"/>
<path d="M3.05931 20.0797C2.70725 20.0797 2.42188 20.3651 2.42188 20.7171V21.2908C2.42188 21.6429 2.70725 21.9282 3.05931 21.9282C3.41138 21.9282 3.69675 21.6429 3.69675 21.2908V20.7171C3.69675 20.3651 3.41138 20.0797 3.05931 20.0797Z" fill="#4C5D5B"/>
</svg>
