<svg width="130" height="128" viewBox="0 0 130 128" fill="none" xmlns="http://www.w3.org/2000/svg">
<path d="M56.4392 121.731V85.249H58.5507V121.731H56.4392Z" fill="#36D56B"/>
<path d="M84.5481 121.731V85.249H86.6584V121.731H84.5481Z" fill="#36D56B"/>
<path d="M72.6292 125.89C76.0984 125.89 79.2362 125.318 81.4105 124.44C83.6447 123.564 84.6219 122.379 84.5482 121.729H84.5537H86.6538C86.5795 123.961 84.6582 125.383 82.1987 126.395C79.6813 127.404 76.3322 127.992 72.6292 128V125.89Z" fill="#36D56B"/>
<path d="M61.5822 126.411C58.7645 125.394 56.5714 124.086 56.438 121.729H56.4435H58.5501C58.4173 122.25 59.6083 123.549 62.2701 124.423C64.8515 125.312 68.5491 125.89 72.6284 125.89V128C68.3462 127.992 64.4686 127.403 61.5822 126.411Z" fill="#36D56B"/>
<path d="M84.6304 85.6482L82.462 80.4393C82.2423 79.9021 82.4916 79.2852 83.0299 79.0645C83.568 78.8395 84.1853 79.0946 84.4105 79.6307L86.5734 84.8444C86.7986 85.3817 86.5456 85.9926 86.0075 86.2186C85.8758 86.2723 85.7387 86.2971 85.6071 86.2971C85.1926 86.2977 84.7977 86.054 84.6304 85.6482Z" fill="#36D56B"/>
<path d="M57.0916 86.2169C56.5498 85.9974 56.2955 85.3792 56.5208 84.8438L58.686 79.6367C58.9114 79.094 59.5232 78.8407 60.0619 79.0651C60.6037 79.29 60.8574 79.9008 60.6327 80.4381L58.4669 85.6506C58.2977 86.0546 57.9081 86.2977 57.498 86.2977C57.3633 86.2977 57.2244 86.2711 57.0916 86.2169Z" fill="#36D56B"/>
<path d="M57.1448 87.8506H57.8454C57.7935 88.122 59.0172 88.9414 61.3588 89.3509C63.6757 89.8182 66.8997 90.1071 70.4711 90.113V90.8102C63.2366 90.6787 57.4927 89.94 57.1448 87.8506Z" fill="#36D56B"/>
<path d="M72.626 90.1111C76.1943 90.1111 79.4202 89.8163 81.7341 89.349C84.0758 88.9377 85.3 88.1182 85.2505 87.8528H85.2559H85.956C85.6014 89.9441 79.8587 90.6774 72.626 90.81V90.1111Z" fill="#36D56B"/>
<path d="M70.468 90.8132V90.1089H72.6291V90.8132H70.468Z" fill="#36D56B"/>
<path d="M57.1448 116.52H57.8454C57.7935 116.784 59.019 117.604 61.3618 118.015C63.6763 118.484 66.9028 118.778 70.473 118.778V119.477C63.2348 119.344 57.4927 118.605 57.1448 116.52Z" fill="#36D56B"/>
<path d="M72.626 118.774C76.1943 118.774 79.4227 118.481 81.7365 118.019C84.0789 117.609 85.3 116.788 85.2535 116.522H85.953C85.6045 118.607 79.8618 119.342 72.626 119.479V118.774Z" fill="#36D56B"/>
<path d="M70.468 119.479V118.774H72.626V119.479H70.468Z" fill="#36D56B"/>
<path d="M72.626 79.7827C77.8662 79.8117 82.4396 78.8251 84.0021 77.7451C84.5397 77.3929 84.556 77.2193 84.5505 77.2139H86.6561C86.4307 79.3214 84.4811 80.0312 82.0886 80.788C79.6123 81.4814 76.2934 81.8855 72.626 81.8914V79.7827Z" fill="#36D56B"/>
<path d="M61.679 80.8014C58.9157 80.0054 56.7594 79.4626 56.4424 77.2122H58.4476L58.5449 77.1724C58.5449 77.1778 58.5575 77.2067 58.6028 77.2592C58.691 77.3636 58.8921 77.5306 59.2038 77.7085C59.8283 78.066 60.8635 78.4418 62.1682 78.7523C64.7925 79.3812 68.5154 79.7859 72.6285 79.7859V81.8922C68.3765 81.8862 64.5334 81.4822 61.679 80.8014Z" fill="#36D56B"/>
<path d="M56.438 77.4094V73.1587H58.5465V77.4094H56.438Z" fill="#36D56B"/>
<path d="M84.5481 77.6329V73.0886H86.6584V77.6329H84.5481Z" fill="#36D56B"/>
<path d="M72.626 74.6048C78.7281 74.691 84.1368 73.5301 84.6031 72.8494L84.8363 73.0864H86.6567C86.5708 74.2459 85.7616 74.6681 85.0313 75.0377C84.2461 75.4061 83.2393 75.6902 82.0119 75.9381C79.5658 76.4174 76.2717 76.7123 72.6266 76.7123V74.6048H72.626Z" fill="#36D56B"/>
<path d="M58.291 75.0606C57.4757 74.6794 56.5806 74.3743 56.4417 73.0875H58.2331L58.4758 72.7932C58.4758 72.7932 58.4813 72.7944 58.4885 72.804C58.5652 72.8656 58.773 72.9904 59.0774 73.1098C59.7188 73.3703 60.7764 73.6411 62.0997 73.8659C64.753 74.3153 68.4972 74.6047 72.629 74.6047V76.7111C66.2613 76.6983 60.8972 76.0869 58.291 75.0606Z" fill="#36D56B"/>
<path d="M84.5916 73.6066C84.5306 73.5535 84.3747 73.4479 84.1332 73.337C83.6119 73.0886 82.7222 72.8179 81.5994 72.5984C79.3484 72.1533 76.1557 71.865 72.6284 71.865V69.7629C78.1187 69.781 82.7222 70.3744 85.0331 71.4321C85.7573 71.8005 86.5654 72.2226 86.653 73.3834H86.6584H84.8308L84.606 73.6192C84.606 73.6192 84.6001 73.6162 84.5916 73.6066Z" fill="#36D56B"/>
<path d="M58.4766 73.6572L58.0085 73.381H56.4424C56.5807 72.0942 57.4758 71.7885 58.2918 71.4079C59.1754 71.0498 60.3308 70.7675 61.7471 70.5299C64.5732 70.0518 68.3927 69.7629 72.6291 69.7629V71.8693C65.8965 71.8294 60.0137 72.7117 58.6439 73.5602C58.5297 73.6162 58.4929 73.6385 58.4813 73.6493C58.479 73.6518 58.4778 73.6548 58.4766 73.6572Z" fill="#36D56B"/>
<path d="M80.577 113.788C80.3164 113.788 80.0668 113.833 79.833 113.913L77.5326 111.109C77.7818 110.646 77.924 110.117 77.924 109.556C77.924 107.74 76.4445 106.262 74.6257 106.262C72.8071 106.262 71.3274 107.74 71.3274 109.556C71.3274 110.117 71.4695 110.646 71.7189 111.109L69.4184 113.913C69.1848 113.833 68.935 113.788 68.6746 113.788C67.4027 113.788 66.3679 114.821 66.3679 116.092C66.3679 117.362 67.4027 118.395 68.6746 118.395C69.9465 118.395 70.9813 117.362 70.9813 116.092C70.9813 115.332 70.6103 114.66 70.0417 114.24L72.1267 111.7C72.7322 112.402 73.6271 112.849 74.6259 112.849C75.6248 112.849 76.5196 112.402 77.1251 111.7L79.2098 114.24C78.6413 114.66 78.2706 115.332 78.2706 116.091C78.2706 117.362 79.3053 118.395 80.5772 118.395C81.8492 118.395 82.8839 117.362 82.8839 116.091C82.8839 114.821 81.849 113.788 80.577 113.788ZM68.6744 117.706C67.7829 117.706 67.0576 116.981 67.0576 116.092C67.0576 115.201 67.7829 114.477 68.6744 114.477C69.5658 114.477 70.2912 115.201 70.2912 116.092C70.2912 116.981 69.566 117.706 68.6744 117.706ZM74.6257 112.161C73.1874 112.161 72.0173 110.992 72.0173 109.556C72.0173 108.12 73.1874 106.951 74.6257 106.951C76.0641 106.951 77.2342 108.12 77.2342 109.556C77.2342 110.992 76.0641 112.161 74.6257 112.161ZM80.577 117.705C79.6856 117.705 78.9602 116.981 78.9602 116.092C78.9602 115.201 79.6856 114.477 80.577 114.477C81.4685 114.477 82.1939 115.201 82.1939 116.092C82.1939 116.981 81.4685 117.705 80.577 117.705Z" fill="#36D56B"/>
<path d="M71.8867 90.4897C70.8463 90.4897 69.9983 91.3355 69.9983 92.3731C69.9983 93.1838 70.5151 93.8742 71.2376 94.1389L70.6606 96.8004C70.5127 96.779 70.3619 96.7677 70.2082 96.7677C68.4725 96.7677 67.0608 98.1755 67.0608 99.9067C67.0608 100.697 67.349 101.42 67.8345 101.973L65.7429 104.059C65.304 103.69 64.7406 103.465 64.1233 103.465C62.7352 103.465 61.6055 104.591 61.6055 105.975C61.6055 107.36 62.7352 108.487 64.1233 108.487C65.5114 108.487 66.6412 107.36 66.6412 105.975C66.6412 105.359 66.4151 104.798 66.0445 104.36L68.1362 102.274C68.6907 102.758 69.4158 103.046 70.2082 103.046C71.6467 103.046 72.8625 102.081 73.2375 100.763L75.893 101.332C75.882 101.414 75.8734 101.496 75.8734 101.581C75.8734 102.618 76.7213 103.465 77.7618 103.465C78.8022 103.465 79.6501 102.618 79.6501 101.581C79.6501 100.543 78.8022 99.6975 77.7618 99.6975C76.952 99.6975 76.2655 100.21 75.998 100.927L73.3227 100.351C73.3436 100.206 73.3555 100.058 73.3555 99.9067C73.3555 98.472 72.388 97.2594 71.0671 96.8854L71.6376 94.2369C71.72 94.248 71.8014 94.2565 71.8867 94.2565C72.9272 94.2565 73.7751 93.4108 73.7751 92.3731C73.7751 91.3355 72.9272 90.4897 71.8867 90.4897ZM71.8867 90.9083C72.7004 90.9083 73.3555 91.5617 73.3555 92.3731C73.3555 93.1846 72.7004 93.838 71.8867 93.838C71.0731 93.838 70.418 93.1846 70.418 92.3731C70.418 91.5617 71.0731 90.9083 71.8867 90.9083ZM70.2082 97.1863C71.7171 97.1863 72.9358 98.4018 72.9358 99.9067C72.9358 101.411 71.7171 102.627 70.2082 102.627C68.6992 102.627 67.4805 101.411 67.4805 99.9067C67.4805 98.4018 68.6992 97.1863 70.2082 97.1863ZM77.7618 100.116C78.5754 100.116 79.2305 100.769 79.2305 101.581C79.2305 102.392 78.5754 103.046 77.7618 103.046C76.9481 103.046 76.293 102.392 76.293 101.581C76.293 100.769 76.9481 100.116 77.7618 100.116ZM64.1233 103.883C65.2846 103.883 66.2215 104.817 66.2215 105.975C66.2215 107.134 65.2846 108.068 64.1233 108.068C62.962 108.068 62.0252 107.134 62.0252 105.975C62.0252 104.817 62.962 103.883 64.1233 103.883Z" fill="#36D56B"/>
<path d="M73.1669 63.5539L76.3143 68.0402C76.3625 68.1093 76.4416 68.1503 76.5258 68.1503H84.0188V70.4707H84.5356V67.9736L88.1061 62.8838C88.1374 62.8395 88.1529 62.7879 88.1529 62.7361V60.1579H87.6361V61.9182L85.3647 58.6806C85.65 58.3998 85.8275 58.0102 85.8275 57.5797C85.8275 56.7265 85.1322 56.0327 84.2772 56.0327C83.5106 56.0327 82.874 56.5915 82.7501 57.3218H76.7842V55.0015H76.2675V57.4985L72.697 62.5883C72.6656 62.6326 72.6501 62.6842 72.6501 62.7361V65.3143H73.1669V63.5539ZM84.2772 56.5484C84.8472 56.5484 85.3107 57.0109 85.3107 57.5797C85.3107 58.1484 84.8472 58.6109 84.2772 58.6109C83.7072 58.6109 83.2437 58.1484 83.2437 57.5797C83.2437 57.0109 83.7072 56.5484 84.2772 56.5484ZM76.6605 57.8375H82.7504C82.874 58.5679 83.5106 59.1266 84.2775 59.1266C84.5152 59.1266 84.7396 59.0714 84.9412 58.9755L87.579 62.7361L84.1425 67.6346H76.7842V65.3143H76.2675V67.0746L73.2241 62.7361L76.6605 57.8375Z" fill="#36D56B"/>
<path fill-rule="evenodd" clip-rule="evenodd" d="M53.5113 17.0147L53.6896 38.6802C54.4227 38.6802 55.1564 38.6802 55.8889 38.6802L56.0672 17.0147H53.5113ZM59.1531 17.0147L58.6248 38.6791L60.8236 38.6676L61.7102 17.0147H59.1531ZM65.7186 17.0147L64.0196 41.245H45.2843L43.5858 17.0147H42.8103L42.343 13.6135H66.8177L66.4567 17.0147H65.7186ZM46.975 17.0147L48.4318 38.6828L50.5937 38.6867L49.5309 17.0146H46.975V17.0147Z" fill="#DD9D00"/>
<path fill-rule="evenodd" clip-rule="evenodd" d="M36.3273 13.4973C34.4632 11.6396 34.0939 11.903 36.9354 7.99924C39.5348 4.42802 39.3207 3.92491 42.0606 5.39201C46.8312 -1.01138 45.9247 -0.881899 49.2005 1.52287L35.0961 21.4627C31.632 18.9505 32.2132 19.4898 36.3273 13.4973ZM37.3284 12.0818L41.0594 6.80755C39.5151 5.98896 39.7875 6.14916 37.9768 8.70152C36.2277 11.2489 36.1254 10.9455 37.3284 12.0818Z" fill="#DD9D00"/>
<path fill-rule="evenodd" clip-rule="evenodd" d="M54.0678 4.48682C55.3903 4.48682 56.463 5.58852 56.463 6.94645C56.463 8.30493 55.3903 9.40608 54.0678 9.40608C52.7458 9.40608 51.6731 8.30493 51.6731 6.94645C51.6731 5.58852 52.7458 4.48682 54.0678 4.48682Z" fill="#DD9D00"/>
<path fill-rule="evenodd" clip-rule="evenodd" d="M60.6644 1.63306C61.9 1.63306 62.9022 2.66234 62.9022 3.93138C62.9022 5.20043 61.9 6.22971 60.6644 6.22971C59.4287 6.22971 58.4265 5.20042 58.4265 3.93138C58.4265 2.66233 59.4287 1.63306 60.6644 1.63306Z" fill="#DD9D00"/>
<path fill-rule="evenodd" clip-rule="evenodd" d="M58.7646 8.04639C59.6177 8.04639 60.31 8.7569 60.31 9.63366C60.31 10.5104 59.6177 11.2209 58.7646 11.2209C57.9116 11.2209 57.2192 10.5104 57.2192 9.63366C57.2192 8.7569 57.9116 8.04639 58.7646 8.04639Z" fill="#DD9D00"/>
<path d="M106.787 110.395V78.0129H109.408V119.608H107.275L95.9392 86.9827H95.8173V119.608H93.1968V78.0129H95.2994L106.727 110.395H106.787ZM114.649 99.0538C114.649 92.0402 115.513 86.6887 117.239 82.9994C118.966 79.3102 121.393 77.4656 124.521 77.4656C125.354 77.4656 126.208 77.6278 127.082 77.9521C127.955 78.2763 128.768 78.773 129.519 79.442V82.3609C128.605 81.4893 127.762 80.8811 126.99 80.5366C126.219 80.1717 125.416 79.9893 124.583 79.9893C122.287 79.9893 120.55 81.621 119.372 84.8846C118.194 88.1482 117.605 92.8104 117.605 98.8713C117.605 111.358 119.971 117.601 124.705 117.601C125.538 117.601 126.34 117.429 127.112 117.085C127.884 116.74 128.829 116.092 129.946 115.138V118.057C128.362 119.457 126.533 120.155 124.461 120.155C121.292 120.155 118.864 118.392 117.178 114.865C115.492 111.338 114.649 106.067 114.649 99.0538Z" fill="#36D56B"/>
<path d="M38.792 81.1738V97.2281H48.1469V99.7213H38.792V120.215H36.0496V78.6196H48.6344V81.1738H38.792Z" fill="#36D56B"/>
<path d="M55.9792 61.3684L71.1441 64.9071L70.3175 68.4337L49.9333 63.6771L50.1063 62.9389C53.993 58.6846 57.4677 54.709 60.5302 51.0121C65.0003 45.6252 68.3716 40.919 70.6443 36.8936C72.9169 32.8681 74.5241 28.846 75.4661 24.8272C76.2669 21.4098 76.1496 18.6432 75.114 16.5273C74.1122 14.3905 72.3783 13.0344 69.9124 12.459C68.1315 12.0435 65.8914 12.1694 63.1921 12.8371L64.0763 9.06434C66.6532 8.42581 69.1472 8.38785 71.5583 8.95048C74.8734 9.72407 77.229 11.5713 78.6251 14.4921C80.0485 17.4194 80.2412 21.0974 79.2032 25.5262C78.3895 28.9983 77.1407 32.3543 75.4565 35.5944C73.8064 38.8137 71.459 42.418 68.4145 46.4075C65.3701 50.3969 61.225 55.3839 55.9792 61.3684Z" fill="url(#paint0_linear)"/>
<path d="M80.8314 41.4816V38.5018C82.1316 39.7991 83.6145 40.4478 85.2803 40.4478C86.7227 40.4478 87.901 39.86 88.8151 38.6842C89.7496 37.4882 90.2168 35.9173 90.2168 33.9713C90.2168 32.4307 89.841 30.7889 89.0893 29.0456C88.3377 27.3022 87.2305 25.1232 85.7679 22.5083C84.0208 19.4271 82.7207 16.9136 81.8675 14.9676C81.0143 13.0216 80.5876 11.1364 80.5876 9.31209C80.5876 6.51473 81.2479 4.30524 82.5684 2.68359C83.9091 1.04166 85.7273 0.220703 88.0228 0.220703C89.262 0.220703 90.5519 0.585575 91.8928 1.31531V3.99104C90.6332 3.11941 89.3839 2.68359 88.1447 2.68359C86.6008 2.68359 85.4022 3.24103 84.549 4.35591C83.6958 5.45053 83.2692 7.03164 83.2692 9.09924C83.2692 10.7614 83.6654 12.4439 84.4577 14.1466C85.2499 15.8494 86.4993 18.2008 88.2057 21.2008C89.7496 23.8562 90.9278 26.1469 91.7404 28.0725C92.553 29.9983 92.9592 31.8733 92.9592 33.6977C92.9592 36.495 92.2686 38.7349 90.8871 40.4174C89.5261 42.0795 87.7181 42.9106 85.4632 42.9106C83.7974 42.9106 82.2535 42.4343 80.8314 41.4816ZM104.386 3.32211V42.3634H101.613V3.32211H95.0618V0.76801H110.938V3.32211H104.386ZM117.52 3.32211V19.4373H126.997V21.9306H117.52V39.8092H128.124V42.3634H114.777V0.76801H127.667V3.32211H117.52Z" fill="#D29500"/>
<path d="M8.82761 35.4005L14.2516 0.768066H16.5065L21.8086 35.5829H21.9914L27.9944 0.768066H30.8588L22.9971 42.9107H20.7421L15.44 8.61281H15.3181L10.016 42.9107H7.7611L0.0212402 0.768066H2.82465L8.70572 35.4005H8.82761Z" fill="#D29500"/>
<defs>
<linearGradient id="paint0_linear" x1="89.7739" y1="22.1422" x2="74.535" y2="75.9984" gradientUnits="userSpaceOnUse">
<stop stop-color="#DD9D00" stop-opacity="0.39"/>
<stop offset="1" stop-color="#36D56B" stop-opacity="0.42"/>
</linearGradient>
</defs>
</svg>
