<svg width="18" height="18" viewBox="0 0 18 18" fill="none" xmlns="http://www.w3.org/2000/svg">
<path d="M14.5127 17.4375H3.4877C2.44707 17.4375 1.5752 16.5938 1.5752 15.525V7.00313C1.5752 6.44063 1.82832 5.90626 2.27832 5.54063L7.79082 0.984381C8.49395 0.393756 9.50644 0.393756 10.2096 0.984381L15.7221 5.51251C16.1721 5.87813 16.4252 6.41251 16.4252 6.97501V15.4969C16.4252 16.5938 15.5533 17.4375 14.5127 17.4375ZM9.0002 1.68751C8.83145 1.68751 8.63457 1.74376 8.49395 1.85626L2.98145 6.41251C2.8127 6.55313 2.7002 6.77813 2.7002 7.00313V15.525C2.7002 15.9469 3.0377 16.3125 3.4877 16.3125H14.5127C14.9346 16.3125 15.3002 15.975 15.3002 15.525V7.00313C15.3002 6.77813 15.1877 6.55313 15.0189 6.41251L9.50644 1.85626C9.36582 1.74376 9.16895 1.68751 9.0002 1.68751Z" fill="#36D56B"/>
<path d="M12.375 14.9625H5.625C5.31562 14.9625 5.0625 14.7094 5.0625 14.4C5.0625 14.0906 5.31562 13.8375 5.625 13.8375H12.375C12.6844 13.8375 12.9375 14.0906 12.9375 14.4C12.9375 14.7094 12.6844 14.9625 12.375 14.9625Z" fill="#36D56B"/>
</svg>
