<svg width="18" height="16" viewBox="0 0 18 16" fill="none" xmlns="http://www.w3.org/2000/svg">
<path fill-rule="evenodd" clip-rule="evenodd" d="M3.83851 4.57434C5.95835 4.57434 7.67784 6.34027 7.67784 8.51692C7.67784 10.6944 5.95835 12.4595 3.83851 12.4595C1.71948 12.4595 0 10.6944 0 8.51692C0 6.34027 1.71948 4.57434 3.83851 4.57434Z" fill="#DD9D00"/>
<path fill-rule="evenodd" clip-rule="evenodd" d="M14.4128 0C16.3933 0 17.9998 1.64986 17.9998 3.68402C17.9998 5.71819 16.3933 7.36804 14.4128 7.36804C12.4321 7.36804 10.8257 5.71818 10.8257 3.68402C10.8257 1.64984 12.4321 0 14.4128 0Z" fill="#DD9D00"/>
<path fill-rule="evenodd" clip-rule="evenodd" d="M11.3673 10.2802C12.7347 10.2802 13.8444 11.4191 13.8444 12.8245C13.8444 14.2299 12.7347 15.3687 11.3673 15.3687C9.99991 15.3687 8.89014 14.2299 8.89014 12.8245C8.89014 11.4191 9.99991 10.2802 11.3673 10.2802Z" fill="#DD9D00"/>
</svg>
