<svg width="10" height="7" viewBox="0 0 10 7" fill="none" xmlns="http://www.w3.org/2000/svg">
<path fill-rule="evenodd" clip-rule="evenodd" d="M5.1937 0.26988C5.45887 -0.0483272 5.93179 -0.0913202 6.25 0.173853L9.25 2.67385C9.42099 2.81635 9.51986 3.02743 9.51986 3.25002C9.51986 3.4726 9.42099 3.68369 9.25 3.82618L6.25 6.32618C5.93179 6.59136 5.45887 6.54836 5.1937 6.23016C4.92852 5.91195 4.97152 5.43903 5.28972 5.17385L7.19833 4.00002L0.75 4.00001C0.335786 4.00001 0 3.66423 0 3.25001C0 2.8358 0.335786 2.50001 0.75 2.50001L7.19833 2.50002L5.28972 1.32618C4.97152 1.06101 4.92852 0.588088 5.1937 0.26988Z" fill="#D29500"/>
</svg>
