<svg width="10" height="7" viewBox="0 0 10 7" fill="none" xmlns="http://www.w3.org/2000/svg">
<path fill-rule="evenodd" clip-rule="evenodd" d="M4.32584 0.26988C4.06066 -0.0483272 3.58774 -0.0913202 3.26953 0.173853L0.269531 2.67385C0.0985365 2.81635 -0.000330925 3.02743 -0.000330925 3.25002C-0.000330925 3.4726 0.0985365 3.68369 0.269531 3.82618L3.26953 6.32618C3.58774 6.59136 4.06066 6.54836 4.32584 6.23016C4.59101 5.91195 4.54801 5.43903 4.22981 5.17385L2.32121 4.00002L8.76953 4.00001C9.18374 4.00001 9.51953 3.66423 9.51953 3.25001C9.51953 2.8358 9.18374 2.50001 8.76953 2.50001L2.32121 2.50002L4.22981 1.32618C4.54801 1.06101 4.59101 0.588088 4.32584 0.26988Z" fill="#D29500"/>
</svg>
