<svg width="80" height="80" viewBox="0 0 80 80" fill="none" xmlns="http://www.w3.org/2000/svg">
<path d="M57.2403 35.8509L45.5585 29.0835L33.9573 22.3967C32.8294 21.7522 31.5404 21.5911 30.4125 21.9133C29.2846 22.2356 28.2373 22.9607 27.5928 24.0886C27.3511 24.4108 27.2705 24.8136 27.1094 25.2164C27.0288 25.4581 27.0288 25.7804 26.9482 26.1027C26.9482 26.1832 26.9482 26.3443 26.9482 26.4249V40.1208V53.8167C26.9482 55.1057 27.5122 56.3141 28.3178 57.1198C29.204 58.006 30.3319 58.4894 31.621 58.4894C32.346 58.4894 33.8767 57.8448 34.2796 57.6032L45.7196 50.9969H45.8002L45.8808 50.9163L57.7237 44.0684C58.8516 43.4239 59.5766 42.3766 59.8989 41.1681C59.9795 40.9264 59.9795 40.6042 59.9795 40.2819C59.9795 37.6233 57.2403 35.8509 57.2403 35.8509ZM55.629 40.6042L43.9472 47.3715C43.8667 47.3715 43.7861 47.4521 43.7861 47.4521L32.346 54.0583C32.2655 54.1389 31.8626 54.3 31.7015 54.3C31.5404 54.3 31.3793 54.2195 31.2181 54.1389C31.1376 54.0583 31.057 53.8166 31.057 53.6555V40.0402V26.4249V26.3443C31.057 26.2638 31.057 26.2638 31.057 26.1832C31.057 26.1832 31.057 26.1027 31.1376 26.1027C31.1376 26.1027 31.2181 26.0221 31.2181 25.9415C31.2987 25.861 31.4598 25.7804 31.5404 25.6998C31.7015 25.6998 31.8626 25.6998 31.9432 25.6998C32.0238 25.7804 32.1043 25.7804 32.1849 25.861L43.625 32.4672C43.7055 32.5478 43.7861 32.5478 43.7861 32.5478H43.8667L55.5485 39.3151C55.7096 39.3957 56.0318 39.6374 56.0318 39.8791C56.0318 40.2013 55.7901 40.5236 55.629 40.6042Z" fill="white"/>
<path d="M68.2777 11.7623C60.5436 3.94763 50.3119 0 40.0803 0C29.8487 0 19.6171 3.86707 11.8024 11.6818C3.98767 19.577 0.0400391 29.8087 0.0400391 40.0403C0.0400391 50.2719 3.90711 60.5035 11.7218 68.3182C19.5365 76.1329 29.7681 80 39.9998 80C50.2314 80 60.463 76.1329 68.2777 68.3182C76.0924 60.5035 79.9595 50.2719 79.9595 40.0403C79.9595 29.8087 76.0924 19.577 68.2777 11.7623ZM65.458 65.4179C58.4489 72.427 49.2646 75.9718 40.0803 75.9718C30.896 75.9718 21.7117 72.427 14.7027 65.4179C7.61305 58.4089 4.1488 49.2246 4.1488 40.0403C4.1488 30.856 7.69361 21.6717 14.7027 14.6626C21.7117 7.65358 30.896 4.10876 40.0803 4.10876C49.2646 4.10876 58.4489 7.65358 65.458 14.6626C72.467 21.6717 76.0118 30.856 76.0118 40.0403C76.0118 49.2246 72.5476 58.4089 65.458 65.4179Z" fill="white"/>
</svg>
