<svg width="12" height="6" viewBox="0 0 12 6" fill="none" xmlns="http://www.w3.org/2000/svg">
<path d="M11.8625 2.6682C11.8624 2.66806 11.8623 2.6679 11.8621 2.66776L9.41278 0.230263C9.22929 0.0476623 8.9325 0.0483418 8.74985 0.231857C8.56723 0.415349 8.56793 0.712137 8.75142 0.894762L10.3959 2.53126H0.46875C0.209859 2.53126 0 2.74112 0 3.00001C0 3.2589 0.209859 3.46876 0.46875 3.46876H10.3959L8.75144 5.10525C8.56795 5.28788 8.56725 5.58467 8.74988 5.76816C8.93252 5.9517 9.22934 5.95233 9.4128 5.76975L11.8621 3.33226C11.8623 3.33212 11.8624 3.33195 11.8625 3.33181C12.0461 3.14858 12.0455 2.85083 11.8625 2.6682Z" fill="#4C5D5B" fill-opacity="0.5"/>
</svg>
