<svg width="50" height="62" viewBox="0 0 50 62" fill="none" xmlns="http://www.w3.org/2000/svg">
<path d="M44.7855 0H5.21591C2.47648 0 0.251953 2.22706 0.251953 4.96649V57.036C0.251953 59.7755 2.47648 62 5.21591 62H44.783C47.5199 62 49.7495 59.7755 49.7495 57.036V4.96649C49.752 2.22706 47.5224 0 44.7855 0ZM46.3784 57.036C46.3784 57.9187 45.6606 58.6315 44.783 58.6315H5.21591C4.33828 58.6315 3.62298 57.9187 3.62298 57.036V4.96649C3.62298 4.08632 4.33828 3.37103 5.21591 3.37103H44.783C45.6606 3.37103 46.3784 4.08632 46.3784 4.96649V57.036ZM9.09678 7.92914H40.9021V12.5634H9.09678V7.92914ZM28.8968 23.2091H9.09678V20.3251H28.8968V23.2091ZM28.8968 29.6645H9.09678V26.778H28.8968V29.6645ZM28.8968 35.9069H9.09678V33.0229H28.8968V35.9069ZM28.8968 42.1924H9.09678V39.3083H28.8968V42.1924ZM9.09678 44.9775H40.9021V47.8615H9.09678V44.9775ZM31.2126 42.1924H40.9021V20.3479H31.2126C31.2152 20.3479 31.2152 42.1924 31.2126 42.1924ZM32.902 22.0322H39.2179V40.5081H32.902V22.0322Z" fill="#4C5D5B"/>
</svg>
